# xmcd
#
# Track frame offsets: 
#        150
#        4302
#        14980
#        25417
#        36451
#        46338
#        57800
#        68746
#        77610
#        96030
#        107086
#        116988
#        128161
#
# Disc length: 1851 seconds
#
# Revision: 0
# Processed by: cddbd v1.5.2PL0 Copyright (c) Steve Scherf et al.
# Submitted via: ExactAudioCopy v0.99pb4
#
DISCID=b207390d
DTITLE=The Dust Bowl Cavaliers - Volume Two: Flowers and Gasoline
DYEAR=2007
DGENRE=Bluegrass
TTITLE0=The DBC Theme
TTITLE1=Old Joe Clark
TTITLE2=What Is A Man?
TTITLE3=Hot Corn, Cold Corn
TTITLE4=Darlin' Corey
TTITLE5=Got Me A Woman
TTITLE6=Crawdad
TTITLE7=Slew Foot
TTITLE8=Banks of the Ohio
TTITLE9=Lay You Down
TTITLE10=Buffalo Gals
TTITLE11=Roll In My Sweet Baby's Arms
TTITLE12=I Wanna Be Sedated
EXTD=
EXTT0=
EXTT1=
EXTT2=
EXTT3=
EXTT4=
EXTT5=
EXTT6=
EXTT7=
EXTT8=
EXTT9=
EXTT10=
EXTT11=
EXTT12=
PLAYORDER=
